<?xml version="1.0" encoding="utf-8"?>
<!-- Generator: Adobe Illustrator 21.0.2, SVG Export Plug-In . SVG Version: 6.00 Build 0)  -->
<svg version="1.1" id="Layer_1" xmlns="http://www.w3.org/2000/svg" xmlns:xlink="http://www.w3.org/1999/xlink" x="0px" y="0px"
	 viewBox="0 0 480 480" style="enable-background:new 0 0 480 480;" xml:space="preserve">
<style type="text/css">
	.st0{fill:none;}
	.st1{fill:#FFFFFF;}
	.st2{fill:#F26722;}
	.st3{enable-background:new    ;}
</style>
<rect class="st0" width="480" height="480"/>
<g>
	<path class="st1" d="M-284.3-876.8c-1.5,2.1-2.8,4.5-4.7,6.3c-53.2,53.2-106.5,106.3-159.7,159.5c-5.5,5.5-9.8,5.6-15.2,0
		c-30-30.9-59.9-61.9-89.9-92.9c-1.4-1.5-2.4-3.5-3.6-5.2c0-1.4,0-2.8,0-4.3c1.8-2.1,3.5-4.4,5.5-6.3c6.8-6.3,13.8-12.5,20.8-18.7
		c5.2-4.7,9.3-4.6,14.3,0.5c17.7,18,35.4,36,53,54c5.2,5.3,9.5,5.3,14.8,0.1c41.5-41.3,83-82.6,124.5-123.9c5.3-5.3,9.5-5.3,14.8,0
		c6.9,6.9,13.8,13.8,20.6,20.8c1.8,1.9,3.1,4.2,4.7,6.3C-284.3-879.3-284.3-878.1-284.3-876.8z"/>
</g>
<g id="_x36_q36EP_1_">
	<g>
		<path class="st1" d="M-260.4,625c-1.6,0.2-3.1,0.4-4.7,0.4c-56.2,0-112.4,0-168.6,0c-1.4,0-2.9,0-4.2,0
			c-4.4-27.5,18.3-66.2,48-82.1c11.5,9.9,25,15.4,40.4,15.4c15.2,0,28.7-5.4,40.3-15.5c23.7,13.4,39,33.3,45.7,59.5
			c1.7,6.4,2.1,13.2,3.2,19.8C-260.4,623.4-260.4,624.2-260.4,625z"/>
		<path class="st1" d="M-349.8,547.6c-27.2,0-49.1-22-49.1-49.1c0.1-27.5,21.8-49.5,49.2-49.5c27.2,0,49.6,22.3,49.5,49.4
			C-300.4,525.7-322.4,547.6-349.8,547.6z"/>
	</g>
</g>
<g id="gYKBUc.tif">
	<g>
		<path class="st1" d="M839.2,613.5c0-11.8,0-23.7,0-35.6c0-7.5,4.4-13.2,11.4-14.7c1.3-0.3,2.6-0.3,4-0.3c12.4,0,24.8,0,37.2,0
			c9.1,0,15.2,6.2,15.2,15.2c0,23.7,0,47.5,0,71.2c0,8.9-6.2,15.1-15.1,15.2c-12.5,0-25.1,0-37.6,0c-9,0-15.1-6.1-15.1-15.1
			C839.1,637.4,839.1,625.4,839.2,613.5C839.1,613.5,839.2,613.5,839.2,613.5z"/>
		<path class="st1" d="M873.2,487.9c8.5,7.9,16.8,15.3,23.1,24.8c2.9,4.4,5.4,9.1,5.7,14.6c0.6,11-5.7,19.3-16.8,22.5
			c-1,0.3-2.1,0.6-3.1,0.7c-1.8,0.2-2.7-0.8-2-2.5c2.1-4.7,1.8-9.3-0.2-13.9c-2.2-5.2-4.4-10.2-6.7-15.4c-0.7,1.8-1.4,3.8-2.2,5.7
			c-1.4,3.4-3,6.7-4.5,10.2c-1.8,4.4-1.9,8.9,0,13.4c0.7,1.7-0.1,2.9-1.7,2.5c-7.8-1.5-14.5-4.7-18.2-12.3c-2.8-6-2.9-12.1-0.3-18.1
			c2.8-6.7,7.1-12.3,12.1-17.5C863.1,497.6,868.1,492.9,873.2,487.9z"/>
	</g>
</g>
<g id="ynADIB.tif">
	<g>
		<path class="st1" d="M668.4-181.7c5.6-7.1,12-13.1,19.7-17.6c9.4-5.6,19.5-8.3,30.3-8.8c1.3-0.1,1.8,0.4,2.2,1.6
			c11.5,36.5-9.5,73.4-45.2,81.5c-18.3,4.2-36.2,2.4-52.2-8.3c-19.1-12.7-28.7-30.9-28.7-53.9c0-6.5,1-12.9,2.9-19.1
			c0.5-1.4,1.1-1.9,2.7-1.8c20,1,36.1,9.4,48.4,25.3c0.3,0.4,0.6,0.8,1.2,1.4c0-9.4,0-18.4,0-27.6c-0.9-0.2-1.7-0.6-2.7-0.8
			c-19.8-5.4-33.7-23.1-34.1-43.5c-0.2-13.2-0.1-26.4-0.1-39.5c0-3.3,1.5-5.8,4.5-7.1c3.1-1.3,6-0.6,8.3,1.8
			c4.5,4.7,9,9.3,13.7,14.1c0.9-0.8,1.4-1.3,1.9-1.7c4-4,8-8,12.1-12.1c3.7-3.7,7.9-3.7,11.7,0c4.4,4.4,8.8,8.9,13.7,13.7
			c4.4-4.6,8.8-9.1,13.1-13.6c2.5-2.6,5.4-3.7,8.7-2.3c3.5,1.4,4.7,4.4,4.7,8c-0.1,12.1,0,24.2,0,36.3c0,22.7-13.6,40.3-35.6,46.2
			c-0.6,0.2-1.3,0.8-1.3,1.3C668.4-199.3,668.4-190.5,668.4-181.7z"/>
	</g>
</g>
<g id="U5BcAQ.tif">
	<g>
		<path class="st1" d="M-502.4-261c0,2.1,0,4.1,0,6.2c-0.1,0.4-0.3,0.8-0.4,1.2c-1.2,4.8-3.4,8.9-7.2,12.2c-4.6,4-10.1,5.5-16.1,5.5
			c-57.2,0-114.5,0-171.7,0c-3,0-5.9,0-8.9,0c-7.6-0.1-13.9-2.9-18.2-9.1c-2-2.9-3-6.5-4.4-9.7c0-2.1,0-4.1,0-6.2
			c0.1-0.4,0.3-0.8,0.4-1.2c1.2-4.8,3.4-8.9,7.2-12.2c4.6-4,10.1-5.5,16.1-5.5c57.2,0,114.5,0,171.7,0c3,0,5.9,0,8.9,0
			c7.6,0.1,13.9,2.9,18.2,9.1C-504.8-267.9-503.8-264.3-502.4-261z"/>
		<path class="st1" d="M-502.4-341.3c0,1.9,0,3.8,0,5.8c-0.7,2.1-1.2,4.4-2.3,6.4c-4.3,8.5-11.4,12.6-20.9,12.6
			c-60.2,0-120.4,0-180.6,0c-0.7,0-1.5,0-2.2,0c-6.3-0.5-11.6-3.1-15.8-7.9c-2.8-3.2-4-7.1-5.2-11.1c0-1.9,0-3.8,0-5.8
			c1.4-3.4,2.4-7.1,4.4-10c4.5-6.4,11-9.1,18.9-9.1c60.1,0.1,120.3,0,180.4,0c0.8,0,1.6,0,2.4,0c6,0.4,11,2.9,15.2,7.3
			C-504.9-349.7-503.5-345.6-502.4-341.3z"/>
		<path class="st1" d="M-729.4-174.6c0-1.9,0-3.8,0-5.8c0.7-2.1,1.2-4.4,2.3-6.4c4.3-8.5,11.4-12.6,20.9-12.6
			c60.2,0,120.4,0,180.6,0c0.7,0,1.5,0,2.2,0c6.3,0.5,11.6,3.1,15.8,7.9c2.8,3.2,4,7.1,5.2,11.1c0,1.9,0,3.8,0,5.8
			c-1.4,3.4-2.4,7.1-4.4,10c-4.5,6.4-11,9.1-18.9,9.1c-60.1-0.1-120.3,0-180.4,0c-0.8,0-1.6,0-2.4,0c-6-0.4-11-2.9-15.2-7.3
			C-726.8-166.1-728.2-170.3-729.4-174.6z"/>
	</g>
</g>
<g id="k8CL6i.tif">
	<g>
		<path class="st1" d="M167.4,239.2c1.8-2.1,1.6-4.8,2.5-7.2c3.7-10.5,10.3-18.7,19.1-25c23.4-16.8,49.5-22.3,77.7-16.9
			c9.8,1.9,18.1,6.4,22.1,16.4c0.6,1.6,1.6,1.7,2.9,1.3c7.9-2.5,15.9-4.9,24.3-7.5c-5.9-7.9-11.5-15.4-17.1-22.9
			c-3.7-5.1-7-10.5-10.5-15.8c-11.7-17.8,0.6-38.8,16.8-43.7c1.7-0.5,5-1.3,7.7-1.8c4.6,0,5.1,0.3,9.7,0.3c0.2,0.2,1.8,0.2,2.1,0.2
			c8.5,2.6,9.8,5.1,7.9,14.1c-2.1,0-4.3,0-6.4,0.1c-1.3-8.2-4.8-11.2-13-11.4c-16.1-0.5-24.8,12.7-17.9,27.2
			c5.2,10.8,13.1,19.8,19.8,29.5c3.7,5.2,7,10.6,10.9,15.6c8,10.5,8.3,22.1,4.7,33.8c-6.4,21.2-20.8,36.2-38.7,48
			c-15.6,10.2-33,15.2-51.4,16.9c-13.2,1.3-26.3,0.8-38.9-3.2c-17.1-5.5-29.5-15.8-33.3-34.4c-0.1-0.5-0.6-1-1-1.4
			C167.4,247.2,167.4,243.1,167.4,239.2z M283.5,210.4c3.6-1,4.1-2.5,2.2-5.5c-1-1.5-2.2-2.9-3.7-4c-4.8-3.4-10.3-4.9-16-5.3
			c-20.6-1.6-40.5,2-59.8,9.2c-10.6,4-20.4,9.6-27.9,18.4c-6.2,7.2-9.4,15.6-7.1,25.2c2,8.2,7.5,13.7,14.5,17.7
			c12.9,7.4,27.1,8.9,43,9.3c4-0.2,9.6-0.6,15.1-1c21.8-1.4,41.9-8.5,60.8-19.1c17-9.4,25.4-31.5,14.4-49.8
			c-1.4-2.4-2.8-3.2-5.5-2.2c-6.8,2.3-13.8,4.4-20.7,6.4c-2.2,0.6-3.2,1.7-3.7,4c-0.8,4.7-3.3,8.6-6.1,12.3
			c-7.7,9.8-17.7,16.2-29.4,20.1c-12.9,4.3-26,7.1-39.5,3.9c-4.3-1-8.7-2.9-9.1-7.9c-0.5-5.2,4-6.8,7.8-8.6 M287.2,212
			c-1.4,0.2-2.3,0.2-3.2,0.6c-21,6.7-42.1,13.3-62.4,21.8c-3.4,1.4-6.8,2.9-9.8,5.2c-1.3,1.1-3.4,2.2-2.6,4.4
			c0.7,2.1,2.9,2.2,4.7,2.4c4.8,0.5,9.5-0.2,14.3-0.8c18-2.5,34.9-8,49.3-19.4C282,222.7,285.5,218.4,287.2,212z"/>
		<path class="st2" d="M326.1,130.6c2.1,0,4.3,0,6.4-0.1c-0.7,6.4-1.5,12.8-2.3,19.2c-0.1,0.9-0.2,2.1-1.3,2.1
			c-1.5,0-1.4-1.3-1.5-2.4C326.9,143.3,326.5,136.9,326.1,130.6z"/>
	</g>
</g>
<rect x="81.2" y="319.3" class="st0" width="317.6" height="46"/>
<g class="st3">
	<path class="st1" d="M164.4,353.1l2.7-4.7c0.5-0.7,1.5-0.6,1.9-0.3c0.2,0.1,4.3,3.1,8.1,3.1c2.3,0,3.9-1.4,3.9-3.4
		c0-2.4-2-4.2-5.9-5.8c-4.9-1.9-11.1-5.8-11.1-12.6c0-5.7,4.4-11.4,13.2-11.4c5.9,0,10.5,3,12.2,4.3c0.7,0.4,0.6,1.4,0.3,1.8
		l-2.9,4.4c-0.4,0.6-1.4,1.1-1.9,0.7c-0.5-0.3-4.7-3.4-8.2-3.4c-2.1,0-3.6,1.4-3.6,2.9c0,2.1,1.7,3.7,6.2,5.5
		c4.5,1.8,11.5,5.3,11.5,13c0,5.9-5.1,11.8-13.5,11.8c-7.4,0-11.5-3.1-12.9-4.4C164.1,354.1,163.9,353.9,164.4,353.1z"/>
	<path class="st1" d="M205.5,326.9h-8.2c-0.6,0-1.1-0.5-1.1-1.1v-6.2c0-0.6,0.5-1.1,1.1-1.1h25.4c0.6,0,1.1,0.5,1.1,1.1v6.2
		c0,0.6-0.5,1.1-1.1,1.1h-8.2v30.5c0,0.6-0.5,1.1-1.1,1.1h-6.9c-0.6,0-1.1-0.5-1.1-1.1V326.9z"/>
	<path class="st1" d="M224.6,357l17.9-38.5c0.2-0.3,0.6-0.6,1-0.6h0.6c0.4,0,0.8,0.3,1,0.6l17.9,38.5c0.3,0.7-0.1,1.5-1,1.5h-6.3
		c-1,0-1.5-0.3-2-1.4l-2.1-4.5H236l-2.1,4.6c-0.3,0.7-0.9,1.4-2.1,1.4h-6.3C224.7,358.5,224.3,357.8,224.6,357z M248.1,344.8
		l-4.3-9.4h-0.1l-4.3,9.4H248.1z"/>
	<path class="st1" d="M269.9,319.6c0-0.6,0.5-1.1,1.1-1.1h17.1c6.9,0,12.5,5.5,12.5,12.3c0,5.3-3.5,9.5-8.5,11.5l7.8,14.5
		c0.4,0.7,0,1.7-1,1.7h-7.6c-0.5,0-0.8-0.3-0.9-0.5l-7.6-15.1h-3.9v14.6c0,0.6-0.5,1.1-1.1,1.1H271c-0.6,0-1.1-0.5-1.1-1.1V319.6z
		 M287.4,335.6c2.3,0,4.3-2.2,4.3-4.6s-2-4.3-4.3-4.3h-8.5v8.9H287.4z"/>
	<path class="st1" d="M315.7,326.9h-8.2c-0.6,0-1.1-0.5-1.1-1.1v-6.2c0-0.6,0.5-1.1,1.1-1.1h25.4c0.6,0,1.1,0.5,1.1,1.1v6.2
		c0,0.6-0.5,1.1-1.1,1.1h-8.2v30.5c0,0.6-0.5,1.1-1.1,1.1h-6.9c-0.6,0-1.1-0.5-1.1-1.1V326.9z"/>
</g>
<rect x="548.2" y="342.1" class="st0" width="400" height="58"/>
<g class="st3">
	<path class="st1" d="M-419,652.9c0-0.6,0.5-1.1,1.1-1.1h6.9c0.6,0,1.1,0.5,1.1,1.1v37.8c0,0.6-0.5,1.1-1.1,1.1h-6.9
		c-0.6,0-1.1-0.5-1.1-1.1V652.9z"/>
	<path class="st1" d="M-397.9,652.2c0-0.6,0.5-1,1.1-1h1.4l22.8,22h0.1v-20.3c0-0.6,0.5-1.1,1.1-1.1h6.9c0.6,0,1.1,0.5,1.1,1.1v38.5
		c0,0.6-0.5,1-1.1,1h-0.9c-0.2,0-0.6-0.2-0.7-0.3l-22.6-22.7h-0.1v21.3c0,0.6-0.5,1.1-1.1,1.1h-6.8c-0.6,0-1.1-0.5-1.1-1.1
		L-397.9,652.2z"/>
	<path class="st1" d="M-351.3,652.9c0-0.6,0.5-1.1,1.1-1.1h23.7c0.6,0,1.1,0.5,1.1,1.1v6.2c0,0.6-0.5,1.1-1.1,1.1h-15.8v8.2h13
		c0.6,0,1.1,0.5,1.1,1.1v6.2c0,0.6-0.5,1.1-1.1,1.1h-13v13.9c0,0.6-0.5,1.1-1.1,1.1h-6.7c-0.6,0-1.1-0.5-1.1-1.1V652.9z"/>
	<path class="st1" d="M-299.1,651.2c11.4,0,20.6,9.2,20.6,20.6c0,11.4-9.1,20.5-20.6,20.5s-20.5-9.1-20.5-20.5
		C-319.7,660.4-310.6,651.2-299.1,651.2z M-299.1,683.2c6.3,0,11.4-5.1,11.4-11.4c0-6.3-5.1-11.5-11.4-11.5
		c-6.2,0-11.4,5.2-11.4,11.5C-310.5,678.1-305.4,683.2-299.1,683.2z"/>
</g>
<rect x="971.7" y="342.1" class="st0" width="400" height="58"/>
<g class="st3">
	<path class="st1" d="M718.4,726l2.7-4.7c0.5-0.7,1.5-0.6,1.9-0.3c0.2,0.1,4.3,3.1,8.1,3.1c2.3,0,3.9-1.4,3.9-3.4
		c0-2.4-2-4.2-5.9-5.8c-4.9-1.9-11.1-5.8-11.1-12.6c0-5.7,4.4-11.4,13.2-11.4c5.9,0,10.5,3,12.2,4.3c0.7,0.4,0.6,1.4,0.3,1.8
		l-2.9,4.4c-0.4,0.6-1.4,1.1-1.9,0.7c-0.5-0.3-4.7-3.4-8.2-3.4c-2.1,0-3.6,1.4-3.6,2.9c0,2.1,1.7,3.7,6.2,5.5
		c4.5,1.8,11.5,5.3,11.5,13c0,5.9-5.1,11.8-13.5,11.8c-7.4,0-11.5-3.1-12.9-4.4C718.1,727,718,726.8,718.4,726z"/>
	<path class="st1" d="M754.4,692.5c0-0.6,0.5-1.1,1.1-1.1h23.7c0.6,0,1.1,0.5,1.1,1.1v6.2c0,0.6-0.5,1.1-1.1,1.1h-15.8v7.1h13
		c0.6,0,1.1,0.5,1.1,1.1v6.2c0,0.6-0.5,1.1-1.1,1.1h-13v7.7h15.8c0.6,0,1.1,0.5,1.1,1.1v6.2c0,0.6-0.5,1.1-1.1,1.1h-23.7
		c-0.6,0-1.1-0.5-1.1-1.1V692.5z"/>
	<path class="st1" d="M790.2,692.5c0-0.6,0.5-1.1,1.1-1.1h17.1c6.9,0,12.5,5.5,12.5,12.3c0,5.3-3.5,9.5-8.5,11.5l7.8,14.5
		c0.4,0.7,0,1.7-1,1.7h-7.6c-0.5,0-0.8-0.3-0.9-0.5l-7.6-15.1h-3.9v14.6c0,0.6-0.5,1.1-1.1,1.1h-6.8c-0.6,0-1.1-0.5-1.1-1.1V692.5z
		 M807.6,708.5c2.3,0,4.3-2.2,4.3-4.6s-2-4.3-4.3-4.3h-8.5v8.9H807.6z"/>
	<path class="st1" d="M830.8,692.5c0-0.6,0.5-1.1,1.1-1.1h23.7c0.6,0,1.1,0.5,1.1,1.1v6.2c0,0.6-0.5,1.1-1.1,1.1h-15.8v7.1h13
		c0.6,0,1.1,0.5,1.1,1.1v6.2c0,0.6-0.5,1.1-1.1,1.1h-13v7.7h15.8c0.6,0,1.1,0.5,1.1,1.1v6.2c0,0.6-0.5,1.1-1.1,1.1h-23.7
		c-0.6,0-1.1-0.5-1.1-1.1V692.5z"/>
	<path class="st1" d="M870.6,691.7c0.1-0.5,0.6-0.9,1-0.9h0.9c0.3,0,0.8,0.2,1,0.6l13.3,24.7h0.1l13.3-24.7c0.2-0.3,0.7-0.6,1-0.6
		h0.9c0.5,0,1,0.4,1,0.9l6.5,38.4c0.1,0.7-0.4,1.3-1.1,1.3h-6.7c-0.5,0-1-0.5-1.1-0.9l-2.6-17.7H898l-9.6,18.5
		c-0.2,0.3-0.7,0.6-1,0.6h-1c-0.3,0-0.8-0.3-1-0.6l-9.7-18.5h-0.1l-2.5,17.7c-0.1,0.5-0.5,0.9-1.1,0.9h-6.7c-0.7,0-1.2-0.5-1.1-1.3
		L870.6,691.7z"/>
	<path class="st1" d="M936.8,690.8c11.4,0,20.6,9.2,20.6,20.6s-9.1,20.5-20.6,20.5c-11.4,0-20.5-9.1-20.5-20.5
		S925.4,690.8,936.8,690.8z M936.8,722.8c6.3,0,11.4-5.1,11.4-11.4c0-6.3-5.1-11.5-11.4-11.5c-6.2,0-11.4,5.2-11.4,11.5
		C925.5,717.7,930.6,722.8,936.8,722.8z"/>
	<path class="st1" d="M966.6,691.8c0-0.6,0.5-1,1.1-1h1.4l22.8,22h0.1v-20.3c0-0.6,0.5-1.1,1.1-1.1h6.9c0.6,0,1.1,0.5,1.1,1.1v38.5
		c0,0.6-0.5,1-1.1,1H999c-0.2,0-0.6-0.2-0.7-0.3L975.7,709h-0.1v21.3c0,0.6-0.5,1.1-1.1,1.1h-6.8c-0.6,0-1.1-0.5-1.1-1.1
		L966.6,691.8z"/>
	<path class="st1" d="M1013.2,692.5c0-0.6,0.5-1.1,1.1-1.1h6.9c0.6,0,1.1,0.5,1.1,1.1v37.8c0,0.6-0.5,1.1-1.1,1.1h-6.9
		c-0.6,0-1.1-0.5-1.1-1.1V692.5z"/>
</g>
<rect x="1480.8" y="342.1" class="st0" width="400" height="58"/>
<g class="st3">
	<path class="st1" d="M508.2-95.4c0-0.6,0.5-1.1,1.1-1.1h13.3c6.7,0,12.3,4.6,12.3,10.6c0,4.4-3.9,7.6-6.6,9c3,1.3,7.7,4.1,7.7,9.3
		c0,6.4-5.7,11-12.5,11h-14.2c-0.6,0-1.1-0.5-1.1-1.1V-95.4z M521.6-80.2c2.2,0,4-1.8,4-4.1c0-2.3-1.8-3.9-4-3.9h-4.5v8H521.6z
		 M522.3-64.6c2.2,0,4.1-1.8,4.1-4.2c0-2.3-2.5-4-4.7-4h-4.6v8.2H522.3z"/>
	<path class="st1" d="M545.5-95.4c0-0.6,0.5-1.1,1.1-1.1h6.8c0.6,0,1.1,0.5,1.1,1.1v30.5h13.6c0.6,0,1.1,0.5,1.1,1.1v6.2
		c0,0.6-0.5,1.1-1.1,1.1h-21.5c-0.6,0-1.1-0.5-1.1-1.1V-95.4z"/>
	<path class="st1" d="M594.5-97c11.4,0,20.6,9.2,20.6,20.6s-9.1,20.5-20.6,20.5C583-55.9,574-65,574-76.4S583-97,594.5-97z
		 M594.5-65c6.3,0,11.4-5.1,11.4-11.4c0-6.3-5.1-11.5-11.4-11.5c-6.2,0-11.4,5.2-11.4,11.5C583.1-70.2,588.2-65,594.5-65z"/>
	<path class="st1" d="M628.3-96.1c0.1-0.5,0.6-0.9,1-0.9h0.9c0.3,0,0.8,0.2,1,0.6l13.3,24.7h0.1l13.3-24.7c0.2-0.3,0.7-0.6,1-0.6
		h0.9c0.5,0,1,0.4,1,0.9l6.5,38.4c0.1,0.7-0.4,1.3-1.1,1.3h-6.7c-0.5,0-1-0.5-1.1-0.9L655.7-75h-0.1L646-56.5
		c-0.2,0.3-0.7,0.6-1,0.6h-1c-0.3,0-0.8-0.3-1-0.6L633.3-75h-0.1l-2.5,17.7c-0.1,0.5-0.5,0.9-1.1,0.9h-6.7c-0.7,0-1.2-0.5-1.1-1.3
		L628.3-96.1z"/>
	<path class="st1" d="M674.6-61.9l2.7-4.7c0.5-0.7,1.5-0.6,1.9-0.3c0.2,0.1,4.3,3.1,8.1,3.1c2.3,0,3.9-1.4,3.9-3.4
		c0-2.4-2-4.2-5.9-5.8c-4.9-1.9-11.1-5.8-11.1-12.6c0-5.7,4.4-11.4,13.2-11.4c5.9,0,10.5,3,12.2,4.3c0.7,0.4,0.6,1.4,0.3,1.8
		l-2.9,4.4c-0.4,0.6-1.4,1.1-1.9,0.7c-0.5-0.3-4.7-3.4-8.2-3.4c-2.1,0-3.6,1.4-3.6,2.9c0,2.1,1.7,3.7,6.2,5.5
		c4.5,1.8,11.5,5.3,11.5,13c0,5.9-5.1,11.8-13.5,11.8c-7.4,0-11.5-3.1-12.9-4.4C674.3-60.9,674.1-61.1,674.6-61.9z"/>
	<path class="st1" d="M715.7-88.1h-8.2c-0.6,0-1.1-0.5-1.1-1.1v-6.2c0-0.6,0.5-1.1,1.1-1.1h25.4c0.6,0,1.1,0.5,1.1,1.1v6.2
		c0,0.6-0.5,1.1-1.1,1.1h-8.2v30.5c0,0.6-0.5,1.1-1.1,1.1h-6.9c-0.6,0-1.1-0.5-1.1-1.1V-88.1z"/>
	<path class="st1" d="M742-95.4c0-0.6,0.5-1.1,1.1-1.1h23.7c0.6,0,1.1,0.5,1.1,1.1v6.2c0,0.6-0.5,1.1-1.1,1.1h-15.8v7.1h13
		c0.6,0,1.1,0.5,1.1,1.1v6.2c0,0.6-0.5,1.1-1.1,1.1h-13v7.7h15.8c0.6,0,1.1,0.5,1.1,1.1v6.2c0,0.6-0.5,1.1-1.1,1.1h-23.7
		c-0.6,0-1.1-0.5-1.1-1.1V-95.4z"/>
	<path class="st1" d="M777.8-95.4c0-0.6,0.5-1.1,1.1-1.1H796c6.9,0,12.5,5.5,12.5,12.3c0,5.3-3.5,9.5-8.5,11.5l7.8,14.5
		c0.4,0.7,0,1.7-1,1.7h-7.6c-0.5,0-0.8-0.3-0.9-0.5l-7.6-15.1h-3.9v14.6c0,0.6-0.5,1.1-1.1,1.1h-6.8c-0.6,0-1.1-0.5-1.1-1.1V-95.4z
		 M795.3-79.4c2.3,0,4.3-2.2,4.3-4.6s-2-4.3-4.3-4.3h-8.5v8.9H795.3z"/>
</g>
<rect x="-49.2" y="-388.4" class="st0" width="448.2" height="58"/>
<g>
	<g>
		<path class="st1" d="M-178.8,100.5c-9.1-14.5-18.3-29.1-27.3-43.7c-1.7-2.7-3.9-3.8-7-3.8c-17.9,0.1-35.9,0.1-53.7,0
			c-3.3,0-5.4,1.2-7.1,4c-8.8,14.2-17.6,28.4-26.6,42.6c-1.7,2.8-2.1,5.4-1.5,8.6c7.8,38.4,15.5,76.9,23.1,115.4
			c0.9,4.4,2.9,6.1,7.5,6.1c10.5,0,21,0,31.5,0c10.6,0,21.3,0,31.9,0c4,0,6.3-1.8,7.1-5.7c7.8-39.1,15.6-78,23.4-117.1
			C-177.1,104.4-177.5,102.5-178.8,100.5z"/>
		<g id="JGIUx1.tif">
			<g>
				<path class="st1" d="M-321.5,137.6c2.1-0.1,4.2,0,6.3,0c6.7,0,6.7,0,6.9,6.7c0.1,1.4,0.7,3.3,1.7,4.2c7.1,6.7,9.8,14.8,8.5,24.5
					c-2.1,15.8-5.7,31.3-10.9,46.4c-1.2,3.5-2.9,6.8-4.3,10.2c-11,0-21.8,0-32.8,0c-0.6-1-1.2-1.8-1.6-2.9
					c-6.8-17.5-11.2-35.6-13.7-54.3c-1-7.8,0.2-15.2,5.9-20.8c3.5-3.5,5-7.1,4.4-11.7c-0.3-1.9,0.7-2.3,2.4-2.3
					c3.6,0.1,7.1,0,10.6,0c0.4,0,0.7,0,1-0.1"/>
			</g>
		</g>
	</g>
	<g class="st3">
		<path class="st1" d="M-441,257.8c0-0.7,0.6-1.4,1.4-1.4h6.7c0.7,0,1.4,0.6,1.4,1.4v15l12.7-15.8c0.2-0.3,0.7-0.6,1.1-0.6h7.2
			c1.1,0,1.7,1.3,1,2.1l-13.4,16.7l14.6,19c0.6,0.9,0,2.1-1.1,2.1h-7.9c-0.4,0-0.9-0.2-1-0.4l-13.2-17.9v17c0,0.7-0.6,1.4-1.4,1.4
			h-6.7c-0.8,0-1.4-0.6-1.4-1.4V257.8z"/>
		<path class="st1" d="M-400.2,257.5c0-0.6,0.5-1.1,1.1-1.1h6.9c0.6,0,1.1,0.5,1.1,1.1v37.8c0,0.6-0.5,1.1-1.1,1.1h-6.9
			c-0.6,0-1.1-0.5-1.1-1.1V257.5z"/>
		<path class="st1" d="M-381.3,291l2.7-4.7c0.5-0.7,1.5-0.6,1.9-0.3c0.2,0.1,4.3,3.1,8.1,3.1c2.3,0,3.9-1.4,3.9-3.4
			c0-2.4-2-4.2-5.9-5.8c-4.9-1.9-11.1-5.8-11.1-12.6c0-5.7,4.4-11.4,13.2-11.4c5.9,0,10.5,3,12.2,4.3c0.7,0.4,0.6,1.4,0.3,1.8
			l-2.9,4.4c-0.4,0.6-1.4,1.1-1.9,0.7c-0.5-0.3-4.7-3.4-8.2-3.4c-2.1,0-3.6,1.4-3.6,2.9c0,2.1,1.7,3.7,6.2,5.5
			c4.5,1.8,11.5,5.3,11.5,13c0,5.9-5.1,11.8-13.5,11.8c-7.4,0-11.5-3.1-12.9-4.4C-381.6,292-381.8,291.8-381.3,291z"/>
		<path class="st1" d="M-340.2,264.8h-8.2c-0.6,0-1.1-0.5-1.1-1.1v-6.2c0-0.6,0.5-1.1,1.1-1.1h25.4c0.6,0,1.1,0.5,1.1,1.1v6.2
			c0,0.6-0.5,1.1-1.1,1.1h-8.2v30.5c0,0.6-0.5,1.1-1.1,1.1h-6.9c-0.6,0-1.1-0.5-1.1-1.1V264.8z"/>
		<path class="st1" d="M-313.9,257.5c0-0.6,0.5-1.1,1.1-1.1h23.7c0.6,0,1.1,0.5,1.1,1.1v6.2c0,0.6-0.5,1.1-1.1,1.1h-15.8v7.1h13
			c0.6,0,1.1,0.5,1.1,1.1v6.2c0,0.6-0.5,1.1-1.1,1.1h-13v7.7h15.8c0.6,0,1.1,0.5,1.1,1.1v6.2c0,0.6-0.5,1.1-1.1,1.1h-23.7
			c-0.6,0-1.1-0.5-1.1-1.1V257.5z"/>
	</g>
	<g class="st3">
		<path class="st1" d="M-265.4,256.9c0.1-0.3,0.4-0.5,0.7-0.5h0.8c0.5,0,0.9,0.3,0.7,0.8l-12.6,38.7c-0.1,0.3-0.5,0.5-0.7,0.5h-0.9
			c-0.5,0-0.8-0.3-0.6-0.8L-265.4,256.9z"/>
	</g>
	<g class="st3">
		<path class="st1" d="M-254.5,257.5c0-0.6,0.5-1.1,1.1-1.1h7c0.6,0,1.1,0.5,1.1,1.1v23.2c0,4,3,7.2,7,7.2c4.1,0,7.1-3.2,7.1-7.2
			v-23.2c0-0.6,0.5-1.1,1.1-1.1h7c0.6,0,1.1,0.5,1.1,1.1v23.6c0,8.7-7.3,15.9-16.3,15.9c-9,0-16.2-7.2-16.2-15.9V257.5z"/>
		<path class="st1" d="M-210.4,257.5c0-0.6,0.5-1.1,1.1-1.1h17.1c6.9,0,12.5,5.5,12.5,12.3c0,5.3-3.5,9.5-8.5,11.5l7.8,14.5
			c0.4,0.7,0,1.7-1,1.7h-7.6c-0.5,0-0.8-0.3-0.9-0.5l-7.6-15.1h-3.9v14.6c0,0.6-0.5,1.1-1.1,1.1h-6.8c-0.6,0-1.1-0.5-1.1-1.1V257.5z
			 M-192.9,273.5c2.3,0,4.3-2.2,4.3-4.6s-2-4.3-4.3-4.3h-8.5v8.9H-192.9z"/>
		<path class="st1" d="M-169.8,256.9c0-0.6,0.5-1,1.1-1h1.4l22.8,22h0.1v-20.3c0-0.6,0.5-1.1,1.1-1.1h6.9c0.6,0,1.1,0.5,1.1,1.1V296
			c0,0.6-0.5,1-1.1,1h-0.9c-0.2,0-0.6-0.2-0.7-0.3l-22.6-22.7h-0.1v21.3c0,0.6-0.5,1.1-1.1,1.1h-6.8c-0.6,0-1.1-0.5-1.1-1.1
			L-169.8,256.9z"/>
		<path class="st1" d="M-123.2,257.5c0-0.6,0.5-1.1,1.1-1.1h23.7c0.6,0,1.1,0.5,1.1,1.1v6.2c0,0.6-0.5,1.1-1.1,1.1h-15.8v7.1h13
			c0.6,0,1.1,0.5,1.1,1.1v6.2c0,0.6-0.5,1.1-1.1,1.1h-13v7.7h15.8c0.6,0,1.1,0.5,1.1,1.1v6.2c0,0.6-0.5,1.1-1.1,1.1h-23.7
			c-0.6,0-1.1-0.5-1.1-1.1V257.5z"/>
	</g>
</g>
<g id="JoXS1J.tif">
	<g>
		<path class="st1" d="M102-354.9c0,3.3,0,6.7,0,10c-2.9,8.2-7.6,14.8-15.8,18.9C-3.9-281.4-94-236.6-184.1-192
			c-19.2,9.5-39.2-2.8-39.2-24.2c-0.1-89.2-0.1-178.3,0.1-267.5c0-4.9,1.4-10.4,3.8-14.7c7.1-12.6,22.2-16,36.7-8.8
			c87.8,43.5,175.5,87,263.3,130.3C90.6-371.9,98.7-365.9,102-354.9z"/>
	</g>
</g>
<g id="edgxyv_1_">
	<g>
		<path class="st1" d="M493.5-353.9c0,33.5,0,67,0,100.5c0,13.3-3.2,25.6-11.9,36.2c-10.8,13.1-24.9,19.3-41.5,19.4
			c-68.8,0.2-137.7,0.3-206.5,0c-30.9-0.2-52.9-22.7-53.1-53.8c-0.2-68.3-0.2-136.7,0-205c0.1-31.7,22.7-54,54.3-54.1
			c68-0.1,136-0.1,204,0c32.1,0,54.5,22.6,54.6,54.9C493.6-421.9,493.5-387.9,493.5-353.9z"/>
	</g>
</g>
</svg>
